<?xml version="1.0" standalone="no"?><!DOCTYPE svg PUBLIC "-//W3C//DTD SVG 1.1//EN" "http://www.w3.org/Graphics/SVG/1.1/DTD/svg11.dtd"><svg t="1698667511189" class="icon" viewBox="0 0 1024 1024" version="1.1" xmlns="http://www.w3.org/2000/svg" p-id="6854" xmlns:xlink="http://www.w3.org/1999/xlink" width="200" height="200"><path d="M682.688 384h42.688v42.688h-42.688zM298.688 384h42.688v42.688h-42.688z" fill="#FFFFFF" p-id="6855"></path><path d="M341.312 384H384v42.688h-42.688zM426.688 384h42.688v42.688h-42.688z" fill="#FFFFFF" p-id="6856"></path><path d="M469.312 384H512v42.688h-42.688zM554.688 384h42.688v42.688h-42.688zM640 384h42.688v42.688H640zM768 426.688h42.688v42.688H768zM810.688 426.688h42.688v42.688h-42.688zM170.688 426.688h42.688v42.688h-42.688z" fill="#FFFFFF" p-id="6857"></path><path d="M213.312 426.688H256v42.688h-42.688z" fill="#FFFFFF" p-id="6858"></path><path d="M682.688 426.688h42.688v42.688h-42.688z" fill="#5D291A" p-id="6859"></path><path d="M682.688 469.312h42.688V512h-42.688z" fill="#5D291A" p-id="6860"></path><path d="M725.312 426.688H768v42.688h-42.688z" fill="#5D291A" p-id="6861"></path><path d="M725.312 469.312H768V512h-42.688zM682.688 512h42.688v42.688h-42.688zM768 469.312h42.688V512H768zM810.688 469.312h42.688V512h-42.688zM256 426.688h42.688v42.688H256zM298.688 426.688h42.688v42.688h-42.688zM384 426.688h42.688v42.688H384zM426.688 426.688h42.688v42.688h-42.688zM213.312 469.312H256V512h-42.688z" fill="#5D291A" p-id="6862"></path><path d="M298.688 469.312h42.688V512h-42.688zM384 469.312h42.688V512H384zM426.688 469.312h42.688V512h-42.688zM512 426.688h42.688v42.688H512z" fill="#5D291A" p-id="6863"></path><path d="M512 469.312h42.688V512H512zM298.688 512h42.688v42.688h-42.688zM384 512h42.688v42.688H384zM426.688 512h42.688v42.688h-42.688zM554.688 426.688h42.688v42.688h-42.688z" fill="#5D291A" p-id="6864"></path><path d="M597.312 426.688H640v42.688h-42.688z" fill="#5D291A" p-id="6865"></path><path d="M597.312 469.312H640V512h-42.688zM554.688 512h42.688v42.688h-42.688z" fill="#5D291A" p-id="6866"></path><path d="M597.312 512H640v42.688h-42.688zM640 512h42.688v42.688H640zM170.688 469.312h42.688V512h-42.688zM256 469.312h42.688V512H256zM341.312 512H384v42.688h-42.688zM469.312 512H512v42.688h-42.688zM512 512h42.688v42.688H512zM554.688 469.312h42.688V512h-42.688z" fill="#5D291A" p-id="6867"></path><path d="M682.688 597.312h42.688V640h-42.688z" fill="#FFFFFF" p-id="6868"></path><path d="M725.312 554.688H768v42.688h-42.688z" fill="#FFFFFF" p-id="6869"></path><path d="M725.312 597.312H768V640h-42.688zM682.688 640h42.688v42.688h-42.688z" fill="#FFFFFF" p-id="6870"></path><path d="M725.312 640H768v42.688h-42.688zM768 554.688h42.688v42.688H768z" fill="#FFFFFF" p-id="6871"></path><path d="M768 597.312h42.688V640H768zM768 640h42.688v42.688H768zM682.688 682.688h42.688v42.688h-42.688z" fill="#FFFFFF" p-id="6872"></path><path d="M725.312 682.688H768v42.688h-42.688zM768 682.688h42.688v42.688H768z" fill="#FFFFFF" p-id="6873"></path><path d="M682.688 725.312h42.688V768h-42.688z" fill="#FFFFFF" p-id="6874"></path><path d="M725.312 725.312H768V768h-42.688zM725.312 768H768v42.688h-42.688zM213.312 554.688H256v42.688h-42.688z" fill="#FFFFFF" p-id="6875"></path><path d="M213.312 597.312H256V640h-42.688zM298.688 597.312h42.688V640h-42.688zM426.688 597.312h42.688V640h-42.688zM512 597.312h42.688V640H512zM213.312 640H256v42.688h-42.688zM256 640h42.688v42.688H256zM298.688 640h42.688v42.688h-42.688z" fill="#FFFFFF" p-id="6876"></path><path d="M341.312 640H384v42.688h-42.688zM384 640h42.688v42.688H384zM426.688 640h42.688v42.688h-42.688z" fill="#FFFFFF" p-id="6877"></path><path d="M469.312 640H512v42.688h-42.688zM512 640h42.688v42.688H512zM597.312 597.312H640V640h-42.688zM554.688 640h42.688v42.688h-42.688z" fill="#FFFFFF" p-id="6878"></path><path d="M597.312 640H640v42.688h-42.688zM213.312 682.688H256v42.688h-42.688zM256 682.688h42.688v42.688H256zM298.688 682.688h42.688v42.688h-42.688z" fill="#FFFFFF" p-id="6879"></path><path d="M341.312 682.688H384v42.688h-42.688zM384 682.688h42.688v42.688H384zM426.688 682.688h42.688v42.688h-42.688z" fill="#FFFFFF" p-id="6880"></path><path d="M469.312 682.688H512v42.688h-42.688zM512 682.688h42.688v42.688H512zM554.688 682.688h42.688v42.688h-42.688z" fill="#FFFFFF" p-id="6881"></path><path d="M597.312 682.688H640v42.688h-42.688zM341.312 725.312H384V768h-42.688zM384 725.312h42.688V768H384zM426.688 725.312h42.688V768h-42.688z" fill="#FFFFFF" p-id="6882"></path><path d="M469.312 725.312H512V768h-42.688zM384 768h42.688v42.688H384zM426.688 768h42.688v42.688h-42.688z" fill="#FFFFFF" p-id="6883"></path><path d="M469.312 768H512v42.688h-42.688zM512 725.312h42.688V768H512zM512 768h42.688v42.688H512zM554.688 725.312h42.688V768h-42.688zM426.688 810.688h42.688v42.688h-42.688z" fill="#FFFFFF" p-id="6884"></path><path d="M469.312 810.688H512v42.688h-42.688zM256 768h42.688v42.688H256zM298.688 768h42.688v42.688h-42.688zM298.688 810.688h42.688v42.688h-42.688z" fill="#FFFFFF" p-id="6885"></path><path d="M341.312 810.688H384v42.688h-42.688zM597.312 768H640v42.688h-42.688zM554.688 810.688h42.688v42.688h-42.688z" fill="#FFFFFF" p-id="6886"></path><path d="M597.312 810.688H640v42.688h-42.688zM341.312 853.312H384V896h-42.688zM384 853.312h42.688V896H384zM512 853.312h42.688V896H512z" fill="#FFFFFF" p-id="6887"></path><path d="M554.688 853.312h42.688V896h-42.688z" fill="#FFFFFF" p-id="6888"></path><path d="M597.312 853.312H640V896h-42.688zM682.688 810.688h42.688v42.688h-42.688zM512 810.688h42.688v42.688H512zM554.688 768h42.688v42.688h-42.688zM597.312 725.312H640V768h-42.688zM682.688 768h42.688v42.688h-42.688zM426.688 853.312h42.688V896h-42.688z" fill="#FFFFFF" p-id="6889"></path><path d="M469.312 853.312H512V896h-42.688zM640 597.312h42.688V640H640zM640 640h42.688v42.688H640zM640 682.688h42.688v42.688H640z" fill="#FFFFFF" p-id="6890"></path><path d="M640 725.312h42.688V768H640zM640 768h42.688v42.688H640zM640 810.688h42.688v42.688H640z" fill="#FFFFFF" p-id="6891"></path><path d="M640 853.312h42.688V896H640zM256 554.688h42.688v42.688H256z" fill="#FFFFFF" p-id="6892"></path><path d="M256 597.312h42.688V640H256zM341.312 597.312H384V640h-42.688zM384 597.312h42.688V640H384zM469.312 597.312H512V640h-42.688zM554.688 597.312h42.688V640h-42.688zM256 725.312h42.688V768H256zM298.688 725.312h42.688V768h-42.688zM341.312 768H384v42.688h-42.688zM384 810.688h42.688v42.688H384z" fill="#FFFFFF" p-id="6893"></path><path d="M768 810.688h42.688v42.688H768zM810.688 810.688h42.688v42.688h-42.688zM170.688 810.688h42.688v42.688h-42.688z" fill="#FFFFFF" p-id="6894"></path><path d="M213.312 810.688H256v42.688h-42.688zM85.312 853.312H128V896h-42.688zM128 853.312h42.688V896H128z" fill="#FFFFFF" p-id="6895"></path><path d="M170.688 853.312h42.688V896h-42.688z" fill="#FFFFFF" p-id="6896"></path><path d="M213.312 853.312H256V896h-42.688zM256 853.312h42.688V896H256zM85.312 896H128v42.688h-42.688zM128 896h42.688v42.688H128zM170.688 896h42.688v42.688h-42.688z" fill="#FFFFFF" p-id="6897"></path><path d="M213.312 896H256v42.688h-42.688zM256 896h42.688v42.688H256zM298.688 896h42.688v42.688h-42.688zM256 938.688h42.688v42.688H256zM298.688 938.688h42.688v42.688h-42.688z" fill="#FFFFFF" p-id="6898"></path><path d="M341.312 938.688H384v42.688h-42.688zM384 938.688h42.688v42.688H384zM426.688 938.688h42.688v42.688h-42.688z" fill="#FFFFFF" p-id="6899"></path><path d="M469.312 938.688H512v42.688h-42.688zM512 938.688h42.688v42.688H512zM554.688 938.688h42.688v42.688h-42.688z" fill="#FFFFFF" p-id="6900"></path><path d="M597.312 938.688H640v42.688h-42.688zM682.688 896h42.688v42.688h-42.688zM682.688 938.688h42.688v42.688h-42.688zM725.312 853.312H768V896h-42.688z" fill="#FFFFFF" p-id="6901"></path><path d="M725.312 896H768v42.688h-42.688zM725.312 938.688H768v42.688h-42.688zM768 896h42.688v42.688H768zM810.688 896h42.688v42.688h-42.688zM853.312 853.312H896V896h-42.688zM896 853.312h42.688V896H896zM938.688 853.312h42.688V896h-42.688z" fill="#FFFFFF" p-id="6902"></path><path d="M853.312 896H896v42.688h-42.688zM896 896h42.688v42.688H896zM42.688 853.312h42.688V896H42.688zM768 853.312h42.688V896H768zM810.688 853.312h42.688V896h-42.688zM640 938.688h42.688v42.688H640zM128 810.688h42.688v42.688H128z" fill="#FFFFFF" p-id="6903"></path><path d="M725.312 384H768v42.688h-42.688zM725.312 512H768v42.688h-42.688zM768 384h42.688v42.688H768zM768 512h42.688v42.688H768zM682.688 554.688h42.688v42.688h-42.688zM768 725.312h42.688V768H768zM768 768h42.688v42.688H768zM810.688 384h42.688v42.688h-42.688zM810.688 512h42.688v42.688h-42.688zM810.688 554.688h42.688v42.688h-42.688z" p-id="6904"></path><path d="M810.688 597.312h42.688V640h-42.688zM810.688 640h42.688v42.688h-42.688zM810.688 682.688h42.688v42.688h-42.688zM810.688 768h42.688v42.688h-42.688zM853.312 426.688H896v42.688h-42.688z" p-id="6905"></path><path d="M853.312 469.312H896V512h-42.688zM896 512h42.688v42.688H896zM938.688 512h42.688v42.688h-42.688zM938.688 640h42.688v42.688h-42.688zM896 682.688h42.688v42.688H896zM853.312 725.312H896V768h-42.688zM170.688 384h42.688v42.688h-42.688z" p-id="6906"></path><path d="M213.312 384H256v42.688h-42.688zM256 384h42.688v42.688H256zM128 426.688h42.688v42.688H128zM213.312 512H256v42.688h-42.688zM298.688 554.688h42.688v42.688h-42.688zM384 554.688h42.688v42.688H384zM426.688 554.688h42.688v42.688h-42.688zM512 554.688h42.688v42.688H512zM170.112 639.424h42.688v42.688h-42.688zM597.312 554.688H640v42.688h-42.688zM170.112 682.112h42.688v42.688h-42.688zM128 768h42.688v42.688H128zM42.688 810.688h42.688v42.688H42.688zM213.312 768H256v42.688h-42.688zM256 810.688h42.688v42.688H256zM298.688 853.312h42.688V896h-42.688zM42.688 896h42.688v42.688H42.688zM341.312 896H384v42.688h-42.688zM384 896h42.688v42.688H384zM426.688 896h42.688v42.688h-42.688z" p-id="6907"></path><path d="M469.312 896H512v42.688h-42.688zM85.312 938.688H128v42.688h-42.688zM128 938.688h42.688v42.688H128zM170.688 938.688h42.688v42.688h-42.688z" p-id="6908"></path><path d="M213.312 938.688H256v42.688h-42.688zM512 896h42.688v42.688H512zM554.688 896h42.688v42.688h-42.688z" p-id="6909"></path><path d="M597.312 896H640v42.688h-42.688zM682.688 853.312h42.688V896h-42.688zM896 810.688h42.688v42.688H896zM938.688 810.688h42.688v42.688h-42.688zM768 938.688h42.688v42.688H768zM810.688 938.688h42.688v42.688h-42.688z" p-id="6910"></path><path d="M853.312 938.688H896v42.688h-42.688zM896 938.688h42.688v42.688H896zM938.688 896h42.688v42.688h-42.688zM725.312 810.688H768v42.688h-42.688zM853.312 810.688H896v42.688h-42.688zM298.688 341.312h42.688V384h-42.688z" p-id="6911"></path><path d="M341.312 341.312H384V384h-42.688zM426.688 341.312h42.688V384h-42.688z" p-id="6912"></path><path d="M469.312 341.312H512V384h-42.688zM554.688 341.312h42.688V384h-42.688zM640 341.312h42.688V384H640zM640 554.688h42.688v42.688H640zM682.688 341.312h42.688V384h-42.688zM981.312 554.688H1024v42.688h-42.688z" p-id="6913"></path><path d="M981.312 597.312H1024V640h-42.688zM0 853.312h42.688V896H0zM0 896h42.688v42.688H0zM256 981.312h42.688V1024H256zM298.688 981.312h42.688V1024h-42.688z" p-id="6914"></path><path d="M341.312 981.312H384V1024h-42.688zM384 981.312h42.688V1024H384zM426.688 981.312h42.688V1024h-42.688z" p-id="6915"></path><path d="M469.312 981.312H512V1024h-42.688zM512 981.312h42.688V1024H512zM554.688 981.312h42.688V1024h-42.688z" p-id="6916"></path><path d="M597.312 981.312H640V1024h-42.688zM640 896h42.688v42.688H640zM640 981.312h42.688V1024H640zM682.688 981.312h42.688V1024h-42.688z" p-id="6917"></path><path d="M725.312 981.312H768V1024h-42.688zM981.312 853.312H1024V896h-42.688zM981.312 896H1024v42.688h-42.688zM128 469.312h42.688V512H128z" p-id="6918"></path><path d="M298.688 170.688h42.688v42.688h-42.688zM426.688 170.688h42.688v42.688h-42.688z" fill="#D1B477" p-id="6919"></path><path d="M298.688 213.312h42.688V256h-42.688zM469.312 213.312H512V256h-42.688zM341.312 256H384v42.688h-42.688zM469.312 256H512v42.688h-42.688zM384 298.688h42.688v42.688H384zM512 298.688h42.688v42.688H512zM554.688 170.688h42.688v42.688h-42.688z" fill="#D1B477" p-id="6920"></path><path d="M554.688 213.312h42.688V256h-42.688zM597.312 256H640v42.688h-42.688zM469.312 42.688H512v42.688h-42.688zM341.312 85.312H384V128h-42.688z" fill="#D1B477" p-id="6921"></path><path d="M469.312 85.312H512V128h-42.688zM384 384h42.688v42.688H384zM341.312 426.688H384v42.688h-42.688zM469.312 426.688H512v42.688h-42.688zM512 384h42.688v42.688H512zM597.312 384H640v42.688h-42.688zM341.312 128H384v42.688h-42.688zM426.688 128h42.688v42.688h-42.688zM384 341.312h42.688V384H384zM512 0h42.688v42.688H512zM512 341.312h42.688V384H512zM597.312 128H640v42.688h-42.688zM597.312 341.312H640V384h-42.688zM640 298.688h42.688v42.688H640zM640 426.688h42.688v42.688H640z" fill="#D1B477" p-id="6922"></path><path d="M640 469.312h42.688V512H640zM341.312 469.312H384V512h-42.688zM469.312 469.312H512V512h-42.688z" fill="#D1B477" p-id="6923"></path><path d="M170.688 512h42.688v42.688h-42.688zM256 512h42.688v42.688H256zM170.688 554.688h42.688v42.688h-42.688zM341.312 554.688H384v42.688h-42.688zM469.312 554.688H512v42.688h-42.688z" p-id="6924"></path><path d="M170.688 597.312h42.688V640h-42.688zM554.688 554.688h42.688v42.688h-42.688zM212.8 724.8h42.688v42.688h-42.688zM170.688 768h42.688v42.688h-42.688zM85.312 810.688H128v42.688h-42.688z" p-id="6925"></path></svg>